<svg xmlns="http://www.w3.org/2000/svg" viewBox="0 -0.5 512 512" shape-rendering="crispEdges">
<metadata>Made with Pixels to Svg https://codepen.io/shshaw/pen/XbxvNj</metadata>
<path stroke="#202020" d="M245 112h23M236 113h41M230 114h53M225 115h63M221 116h71M217 117h28M268 117h28M214 118h22M277 118h22M211 119h19M283 119h19M208 120h17M288 120h17M205 121h16M292 121h16M203 122h15M295 122h15M200 123h14M299 123h14M198 124h13M302 124h13M196 125h12M305 125h12M194 126h12M307 126h12M192 127h11M310 127h11M190 128h11M312 128h11M188 129h11M314 129h11M186 130h11M316 130h11M184 131h10M319 131h10M182 132h10M321 132h10M181 133h10M322 133h10M179 134h10M324 134h10M178 135h9M326 135h9M176 136h9M328 136h9M175 137h9M329 137h9M173 138h9M331 138h9M172 139h8M333 139h8M171 140h8M334 140h8M169 141h8M336 141h8M168 142h8M337 142h8M167 143h8M338 143h8M165 144h8M340 144h8M164 145h8M341 145h8M163 146h8M342 146h8M162 147h7M344 147h7M161 148h7M345 148h7M160 149h7M346 149h7M158 150h8M347 150h8M157 151h7M349 151h7M156 152h7M350 152h7M155 153h7M351 153h7M154 154h7M352 154h7M153 155h7M353 155h7M152 156h7M354 156h7M151 157h7M355 157h7M150 158h7M356 158h7M150 159h6M357 159h6M149 160h6M358 160h6M148 161h6M359 161h6M147 162h6M360 162h6M146 163h6M361 163h6M145 164h6M362 164h6M144 165h7M362 165h7M144 166h6M363 166h6M143 167h6M364 167h6M142 168h6M365 168h6M141 169h6M366 169h6M141 170h6M366 170h6M140 171h6M367 171h6M139 172h6M368 172h6M138 173h6M369 173h6M138 174h6M369 174h6M137 175h6M370 175h6M136 176h6M371 176h6M136 177h5M372 177h5M135 178h6M372 178h6M134 179h6M373 179h6M134 180h5M374 180h5M133 181h6M374 181h6M132 182h6M375 182h6M132 183h6M375 183h6M131 184h6M376 184h6M131 185h5M377 185h5M130 186h6M377 186h6M130 187h5M378 187h5M129 188h6M238 188h1M378 188h6M129 189h5M232 189h2M237 189h1M239 189h1M243 189h2M379 189h5M128 190h6M232 190h1M234 190h1M237 190h1M240 190h1M242 190h1M244 190h1M379 190h6M128 191h5M232 191h1M235 191h2M241 191h1M244 191h1M380 191h5M127 192h5M229 192h2M232 192h1M236 192h1M241 192h1M244 192h3M381 192h5M127 193h5M229 193h1M231 193h2M244 193h1M246 193h1M381 193h5M126 194h5M227 194h4M246 194h3M382 194h5M126 195h5M227 195h1M231 195h2M236 195h2M239 195h1M243 195h1M245 195h2M248 195h1M382 195h5M125 196h6M228 196h2M233 196h3M238 196h1M240 196h1M242 196h1M244 196h1M247 196h3M382 196h6M125 197h5M227 197h4M241 197h1M247 197h1M249 197h2M383 197h5M124 198h6M226 198h1M231 198h1M233 198h3M237 198h1M241 198h1M244 198h1M246 198h1M248 198h1M251 198h1M383 198h6M124 199h5M226 199h5M235 199h4M241 199h1M243 199h3M247 199h1M250 199h1M384 199h5M123 200h6M227 200h1M231 200h2M237 200h1M239 200h5M246 200h1M251 200h1M384 200h6M123 201h5M226 201h1M233 201h3M242 201h1M245 201h1M250 201h1M385 201h5M123 202h5M227 202h1M236 202h3M242 202h1M244 202h1M249 202h1M385 202h5M122 203h5M227 203h1M239 203h1M243 203h1M250 203h1M386 203h5M122 204h5M228 204h1M234 204h1M240 204h2M243 204h2M248 204h2M386 204h5M121 205h6M227 205h1M233 205h1M242 205h6M386 205h6M121 206h5M148 206h38M228 206h7M242 206h1M244 206h1M387 206h5M121 207h5M148 207h38M233 207h1M236 207h6M243 207h1M387 207h5M120 208h5M148 208h2M186 208h2M234 208h1M236 208h1M240 208h1M243 208h1M266 208h6M388 208h5M120 209h5M148 209h2M186 209h2M234 209h1M236 209h1M241 209h1M243 209h1M266 209h6M388 209h5M120 210h5M148 210h2M186 210h2M234 210h2M242 210h2M264 210h2M272 210h4M388 210h5M119 211h5M148 211h2M186 211h2M233 211h1M236 211h1M241 211h1M244 211h1M264 211h2M272 211h4M389 211h5M119 212h5M150 212h2M162 212h12M188 212h2M204 212h8M220 212h13M234 212h1M236 212h6M245 212h11M264 212h2M276 212h2M389 212h5M119 213h5M150 213h2M162 213h12M188 213h2M204 213h8M220 213h36M264 213h2M276 213h2M389 213h5M118 214h5M150 214h2M162 214h2M172 214h2M188 214h2M202 214h2M212 214h2M218 214h2M258 214h2M266 214h2M278 214h4M390 214h5M118 215h5M150 215h2M162 215h2M172 215h2M188 215h2M202 215h2M212 215h2M218 215h2M258 215h2M266 215h2M278 215h4M390 215h5M118 216h5M150 216h2M164 216h2M172 216h2M188 216h2M202 216h2M212 216h2M218 216h2M260 216h2M266 216h2M282 216h2M390 216h5M117 217h6M150 217h2M164 217h2M172 217h2M188 217h2M202 217h2M212 217h2M218 217h2M260 217h2M266 217h2M282 217h2M390 217h6M117 218h5M150 218h2M164 218h2M172 218h2M188 218h2M202 218h2M212 218h2M220 218h2M260 218h2M268 218h2M284 218h2M391 218h5M117 219h5M150 219h2M164 219h2M172 219h2M188 219h2M202 219h2M212 219h2M220 219h2M260 219h2M268 219h2M284 219h2M391 219h5M117 220h5M152 220h2M164 220h2M174 220h2M190 220h2M202 220h2M212 220h2M220 220h2M260 220h2M268 220h2M286 220h4M391 220h5M116 221h5M152 221h2M164 221h2M174 221h2M190 221h2M202 221h2M212 221h2M220 221h2M260 221h2M268 221h2M286 221h4M392 221h5M116 222h5M152 222h2M166 222h2M174 222h2M190 222h2M202 222h2M214 222h2M220 222h2M260 222h2M270 222h2M290 222h2M392 222h5M116 223h5M152 223h2M166 223h2M174 223h2M190 223h2M202 223h2M214 223h2M220 223h2M260 223h2M270 223h2M290 223h2M392 223h5M116 224h5M152 224h2M166 224h2M174 224h2M190 224h2M202 224h2M214 224h2M220 224h2M260 224h2M270 224h2M292 224h4M392 224h5M115 225h5M152 225h2M166 225h2M174 225h2M190 225h2M202 225h2M214 225h2M220 225h2M260 225h2M270 225h2M292 225h4M393 225h5M115 226h5M152 226h2M166 226h2M174 226h2M188 226h2M200 226h2M214 226h2M222 226h2M260 226h2M272 226h2M296 226h2M393 226h5M115 227h5M152 227h2M166 227h2M174 227h2M188 227h2M200 227h2M214 227h2M222 227h2M260 227h2M272 227h2M296 227h2M393 227h5M115 228h5M154 228h2M168 228h6M186 228h2M200 228h2M214 228h2M222 228h2M258 228h2M272 228h2M298 228h4M393 228h5M115 229h5M154 229h2M168 229h6M186 229h2M200 229h2M214 229h2M222 229h2M258 229h2M272 229h2M298 229h4M393 229h5M114 230h5M154 230h2M168 230h2M186 230h4M200 230h2M214 230h2M222 230h2M256 230h2M274 230h2M280 230h6M302 230h2M394 230h5M114 231h5M154 231h2M168 231h2M186 231h4M200 231h2M214 231h2M222 231h2M256 231h2M274 231h2M280 231h6M302 231h2M394 231h5M114 232h5M154 232h2M190 232h6M200 232h2M214 232h2M222 232h2M254 232h2M274 232h2M280 232h2M286 232h2M304 232h4M394 232h5M114 233h5M154 233h2M190 233h6M200 233h2M214 233h2M222 233h2M254 233h2M274 233h2M280 233h2M286 233h2M304 233h4M394 233h5M114 234h5M154 234h2M194 234h2M200 234h2M214 234h2M224 234h2M252 234h2M276 234h2M282 234h2M288 234h2M308 234h2M394 234h5M114 235h5M154 235h2M194 235h2M200 235h2M214 235h2M224 235h2M252 235h2M276 235h2M282 235h2M288 235h2M308 235h2M394 235h5M113 236h5M154 236h2M194 236h2M200 236h2M214 236h2M224 236h2M250 236h2M276 236h2M284 236h2M290 236h2M310 236h2M395 236h5M113 237h5M154 237h2M194 237h2M200 237h2M214 237h2M224 237h2M250 237h2M276 237h2M284 237h2M290 237h2M310 237h2M395 237h5M113 238h5M156 238h2M194 238h2M200 238h2M214 238h2M224 238h2M248 238h2M272 238h4M278 238h2M284 238h2M292 238h4M312 238h4M395 238h5M113 239h5M156 239h2M194 239h2M200 239h2M214 239h2M224 239h2M248 239h2M272 239h4M278 239h2M284 239h2M292 239h4M312 239h4M395 239h5M113 240h5M156 240h2M170 240h8M194 240h2M200 240h2M216 240h2M224 240h2M250 240h2M272 240h2M276 240h4M286 240h2M296 240h2M316 240h2M395 240h5M113 241h5M156 241h2M170 241h8M194 241h2M200 241h2M216 241h2M224 241h2M250 241h2M272 241h2M276 241h4M286 241h2M296 241h2M316 241h2M395 241h5M113 242h5M156 242h2M170 242h2M178 242h2M194 242h2M200 242h2M216 242h2M226 242h2M252 242h2M272 242h2M286 242h2M298 242h2M318 242h4M395 242h5M113 243h5M156 243h2M170 243h2M178 243h2M194 243h2M200 243h2M216 243h2M226 243h2M252 243h2M272 243h2M286 243h2M298 243h2M318 243h4M395 243h5M113 244h5M156 244h2M170 244h2M178 244h2M194 244h2M200 244h2M216 244h2M226 244h2M254 244h2M272 244h2M288 244h2M300 244h2M322 244h2M395 244h5M112 245h5M156 245h2M170 245h2M178 245h2M194 245h2M200 245h2M216 245h2M226 245h2M254 245h2M272 245h2M288 245h2M300 245h2M322 245h2M396 245h5M112 246h5M158 246h2M170 246h2M180 246h2M194 246h2M200 246h2M216 246h2M226 246h2M256 246h2M274 246h2M290 246h4M300 246h2M322 246h2M396 246h5M112 247h5M158 247h2M170 247h2M180 247h2M194 247h2M200 247h2M216 247h2M226 247h2M256 247h2M274 247h2M290 247h4M300 247h2M322 247h2M396 247h5M112 248h5M158 248h2M170 248h2M180 248h2M194 248h2M200 248h2M216 248h2M228 248h2M258 248h2M276 248h4M294 248h6M322 248h2M396 248h5M112 249h5M158 249h2M170 249h2M180 249h2M194 249h2M200 249h2M216 249h2M228 249h2M258 249h2M276 249h4M294 249h6M322 249h2M396 249h5M112 250h5M158 250h2M172 250h2M178 250h2M194 250h2M200 250h2M216 250h2M228 250h2M246 250h2M260 250h2M276 250h8M322 250h2M396 250h5M112 251h5M158 251h2M172 251h2M178 251h2M194 251h2M200 251h2M216 251h2M228 251h2M246 251h2M260 251h2M276 251h8M322 251h2M396 251h5M112 252h5M158 252h2M172 252h2M176 252h2M192 252h2M200 252h2M216 252h2M228 252h2M246 252h4M262 252h2M276 252h2M318 252h4M396 252h5M112 253h5M158 253h2M172 253h2M176 253h2M192 253h2M200 253h2M216 253h2M228 253h2M246 253h4M262 253h2M276 253h2M318 253h4M396 253h5M112 254h5M158 254h2M172 254h4M190 254h2M198 254h2M216 254h2M228 254h2M248 254h4M264 254h2M276 254h2M316 254h2M396 254h5M112 255h5M158 255h2M172 255h4M190 255h2M198 255h2M216 255h2M228 255h2M248 255h4M264 255h2M276 255h2M316 255h2M396 255h5M112 256h5M160 256h2M188 256h2M198 256h2M216 256h2M230 256h2M248 256h2M252 256h2M266 256h2M276 256h2M312 256h4M396 256h5M112 257h5M160 257h2M188 257h2M198 257h2M216 257h2M230 257h2M248 257h2M252 257h2M266 257h2M276 257h2M312 257h4M396 257h5M112 258h5M160 258h2M186 258h2M198 258h2M218 258h2M230 258h2M248 258h2M254 258h2M268 258h2M278 258h2M310 258h2M396 258h5M112 259h5M160 259h2M186 259h2M198 259h2M218 259h2M230 259h2M248 259h2M254 259h2M268 259h2M278 259h2M310 259h2M396 259h5M112 260h5M160 260h2M184 260h2M198 260h2M218 260h2M230 260h2M248 260h2M254 260h2M270 260h2M280 260h6M306 260h4M396 260h5M112 261h5M160 261h2M184 261h2M198 261h2M218 261h2M230 261h2M248 261h2M254 261h2M270 261h2M280 261h6M306 261h4M396 261h5M112 262h5M160 262h2M182 262h2M198 262h2M218 262h2M230 262h2M250 262h2M256 262h2M270 262h2M282 262h2M302 262h4M396 262h5M112 263h5M160 263h2M182 263h2M198 263h2M218 263h2M230 263h2M250 263h2M256 263h2M270 263h2M282 263h2M302 263h4M396 263h5M112 264h5M162 264h2M180 264h2M198 264h2M218 264h2M232 264h2M250 264h2M258 264h2M268 264h2M280 264h2M300 264h2M396 264h5M112 265h5M162 265h2M180 265h2M198 265h2M218 265h2M232 265h2M250 265h2M258 265h2M268 265h2M280 265h2M300 265h2M396 265h5M112 266h5M162 266h2M178 266h2M198 266h2M218 266h2M232 266h2M246 266h4M260 266h2M266 266h2M280 266h2M296 266h4M396 266h5M112 267h5M162 267h2M178 267h2M198 267h2M218 267h2M232 267h2M246 267h4M260 267h2M266 267h2M280 267h2M296 267h4M396 267h5M113 268h5M162 268h2M176 268h2M198 268h2M208 268h10M232 268h2M244 268h2M262 268h4M280 268h2M294 268h2M395 268h5M113 269h5M162 269h2M176 269h2M198 269h2M208 269h10M232 269h2M244 269h2M262 269h4M280 269h2M294 269h2M395 269h5M113 270h5M162 270h2M174 270h2M200 270h8M232 270h2M242 270h2M280 270h2M290 270h4M395 270h5M113 271h5M162 271h2M174 271h2M200 271h8M232 271h2M242 271h2M280 271h2M290 271h4M395 271h5M113 272h5M164 272h2M172 272h2M234 272h2M238 272h4M282 272h8M342 272h4M395 272h5M113 273h5M164 273h2M172 273h2M234 273h2M238 273h4M282 273h8M342 273h4M395 273h5M113 274h5M164 274h2M170 274h2M234 274h4M340 274h2M346 274h2M354 274h2M395 274h5M113 275h5M164 275h2M170 275h2M234 275h4M340 275h2M346 275h2M354 275h2M395 275h5M113 276h5M164 276h2M168 276h2M340 276h2M348 276h2M352 276h2M356 276h2M395 276h5M114 277h5M164 277h2M168 277h2M340 277h2M348 277h2M352 277h2M356 277h2M394 277h5M114 278h5M166 278h2M340 278h2M348 278h6M358 278h2M394 278h5M114 279h5M166 279h2M340 279h2M348 279h6M358 279h2M394 279h5M114 280h5M184 280h46M240 280h20M270 280h14M304 280h14M340 280h2M346 280h6M360 280h2M394 280h5M114 281h5M184 281h46M240 281h20M270 281h14M304 281h14M340 281h2M346 281h6M360 281h2M394 281h5M114 282h5M184 282h2M228 282h2M240 282h2M258 282h2M270 282h2M284 282h2M304 282h2M318 282h2M342 282h4M356 282h4M394 282h5M115 283h5M184 283h2M228 283h2M240 283h2M258 283h2M270 283h2M284 283h2M304 283h2M318 283h2M342 283h4M356 283h4M393 283h5M115 284h5M182 284h2M226 284h2M238 284h2M260 284h2M272 284h2M284 284h2M306 284h2M318 284h2M344 284h2M354 284h4M393 284h5M115 285h5M182 285h2M226 285h2M238 285h2M260 285h2M272 285h2M284 285h2M306 285h2M318 285h2M344 285h2M354 285h4M393 285h5M115 286h5M182 286h2M200 286h28M238 286h2M260 286h2M272 286h2M286 286h2M306 286h2M320 286h2M340 286h4M354 286h6M393 286h5M115 287h5M182 287h2M200 287h28M238 287h2M260 287h2M272 287h2M286 287h2M306 287h2M320 287h2M340 287h4M354 287h6M393 287h5M116 288h5M180 288h2M198 288h2M236 288h2M244 288h12M262 288h2M274 288h2M286 288h2M308 288h2M320 288h2M340 288h2M354 288h2M360 288h2M392 288h5M116 289h5M180 289h2M198 289h2M236 289h2M244 289h12M262 289h2M274 289h2M286 289h2M308 289h2M320 289h2M340 289h2M354 289h2M360 289h2M392 289h5M116 290h5M180 290h2M198 290h2M236 290h2M244 290h2M254 290h2M262 290h2M274 290h2M288 290h2M308 290h2M322 290h2M340 290h2M350 290h4M362 290h2M392 290h5M116 291h5M180 291h2M198 291h2M236 291h2M244 291h2M254 291h2M262 291h2M274 291h2M288 291h2M308 291h2M322 291h2M340 291h2M350 291h4M362 291h2M392 291h5M117 292h5M178 292h2M196 292h28M234 292h2M242 292h2M256 292h2M264 292h2M276 292h2M288 292h2M310 292h2M322 292h2M340 292h2M348 292h2M352 292h2M362 292h2M391 292h5M117 293h5M178 293h2M196 293h28M234 293h2M242 293h2M256 293h2M264 293h2M276 293h2M288 293h2M310 293h2M322 293h2M340 293h2M348 293h2M352 293h2M362 293h2M391 293h5M117 294h5M178 294h2M222 294h2M234 294h2M242 294h2M256 294h2M264 294h2M276 294h2M290 294h2M310 294h2M324 294h2M340 294h10M354 294h8M391 294h5M117 295h6M178 295h2M222 295h2M234 295h2M242 295h2M256 295h2M264 295h2M276 295h2M290 295h2M310 295h2M324 295h2M340 295h10M354 295h8M390 295h6M118 296h5M176 296h2M220 296h2M232 296h2M240 296h2M258 296h2M266 296h2M278 296h2M290 296h2M312 296h2M324 296h2M390 296h5M118 297h5M176 297h2M220 297h2M232 297h2M240 297h2M258 297h2M266 297h2M278 297h2M290 297h2M312 297h2M324 297h2M390 297h5M118 298h5M176 298h2M194 298h28M232 298h2M240 298h20M266 298h2M278 298h2M292 298h2M312 298h2M326 298h2M390 298h5M119 299h5M176 299h2M194 299h28M232 299h2M240 299h20M266 299h2M278 299h2M292 299h2M312 299h2M326 299h2M389 299h5M119 300h5M174 300h2M192 300h2M230 300h2M268 300h2M280 300h2M292 300h2M314 300h2M326 300h2M389 300h5M119 301h5M174 301h2M192 301h2M230 301h2M268 301h2M280 301h2M292 301h2M314 301h2M326 301h2M389 301h5M120 302h5M174 302h2M192 302h2M230 302h2M268 302h2M280 302h2M294 302h2M314 302h2M328 302h2M388 302h5M120 303h5M174 303h2M192 303h2M230 303h2M268 303h2M280 303h2M294 303h2M314 303h2M328 303h2M388 303h5M120 304h5M172 304h2M190 304h2M228 304h2M236 304h28M270 304h2M282 304h2M294 304h2M316 304h2M328 304h2M388 304h5M121 305h5M172 305h2M190 305h2M228 305h2M236 305h28M270 305h2M282 305h2M294 305h2M316 305h2M328 305h2M387 305h5M121 306h5M172 306h2M190 306h2M228 306h2M236 306h2M262 306h2M270 306h2M282 306h2M296 306h14M316 306h2M330 306h14M387 306h5M121 307h6M172 307h2M190 307h2M228 307h2M236 307h2M262 307h2M270 307h2M282 307h2M296 307h14M316 307h2M330 307h14M386 307h6M122 308h5M170 308h2M188 308h2M226 308h2M234 308h2M264 308h2M272 308h2M284 308h2M310 308h2M318 308h2M344 308h2M386 308h5M122 309h5M170 309h2M188 309h2M226 309h2M234 309h2M264 309h2M272 309h2M284 309h2M310 309h2M318 309h2M344 309h2M386 309h5M123 310h5M170 310h2M188 310h2M226 310h2M234 310h2M264 310h2M272 310h2M284 310h2M310 310h2M318 310h2M344 310h2M385 310h5M123 311h5M170 311h2M188 311h2M226 311h2M234 311h2M264 311h2M272 311h2M284 311h2M310 311h2M318 311h2M344 311h2M385 311h5M123 312h6M168 312h2M186 312h4M224 312h2M232 312h2M266 312h2M274 312h2M286 312h2M312 312h2M320 312h2M346 312h2M384 312h6M124 313h5M168 313h2M186 313h4M224 313h2M232 313h2M266 313h2M274 313h2M286 313h2M312 313h2M320 313h2M346 313h2M384 313h5M124 314h6M168 314h2M186 314h2M224 314h2M232 314h2M266 314h2M274 314h2M286 314h2M312 314h2M320 314h2M346 314h2M383 314h6M125 315h5M168 315h2M186 315h2M224 315h2M232 315h2M266 315h2M274 315h2M286 315h2M312 315h2M320 315h2M346 315h2M383 315h5M125 316h6M168 316h20M224 316h10M266 316h10M288 316h26M322 316h26M382 316h6M126 317h5M168 317h20M224 317h10M266 317h10M288 317h26M322 317h26M382 317h5M126 318h5M382 318h5M127 319h5M381 319h5M127 320h5M381 320h5M128 321h5M380 321h5M128 322h6M379 322h6M129 323h5M379 323h5M129 324h6M378 324h6M130 325h5M378 325h5M130 326h6M377 326h6M131 327h5M377 327h5M131 328h6M376 328h6M132 329h6M375 329h6M132 330h6M375 330h6M133 331h6M374 331h6M134 332h5M374 332h5M134 333h6M373 333h6M135 334h6M372 334h6M136 335h5M372 335h5M136 336h6M371 336h6M137 337h6M370 337h6M138 338h6M369 338h6M138 339h6M369 339h6M139 340h6M368 340h6M140 341h6M367 341h6M141 342h6M366 342h6M141 343h6M366 343h6M142 344h6M365 344h6M143 345h6M364 345h6M144 346h6M363 346h6M144 347h7M362 347h7M145 348h6M362 348h6M146 349h6M361 349h6M147 350h6M360 350h6M148 351h6M359 351h6M149 352h6M358 352h6M150 353h6M357 353h6M150 354h7M356 354h7M151 355h7M355 355h7M152 356h7M354 356h7M153 357h7M353 357h7M154 358h7M352 358h7M155 359h7M351 359h7M156 360h7M350 360h7M157 361h7M349 361h7M158 362h8M347 362h8M160 363h7M346 363h7M161 364h7M345 364h7M162 365h7M344 365h7M163 366h8M342 366h8M164 367h8M341 367h8M165 368h8M340 368h8M167 369h8M338 369h8M168 370h8M337 370h8M169 371h8M336 371h8M171 372h8M334 372h8M172 373h8M333 373h8M173 374h9M331 374h9M175 375h9M329 375h9M176 376h9M328 376h9M178 377h9M326 377h9M179 378h10M324 378h10M181 379h10M322 379h10M182 380h10M321 380h10M184 381h10M319 381h10M186 382h11M316 382h11M188 383h11M314 383h11M190 384h11M312 384h11M192 385h11M310 385h11M194 386h12M307 386h12M196 387h12M305 387h12M198 388h13M302 388h13M200 389h14M299 389h14M203 390h15M295 390h15M205 391h16M292 391h16M208 392h17M288 392h17M211 393h19M283 393h19M214 394h22M277 394h22M217 395h28M268 395h28M221 396h71M225 397h63M230 398h53M236 399h41M245 400h23" />
<path stroke="#606060" d="M245 117h23M236 118h41M230 119h53M225 120h63M221 121h71M218 122h77M214 123h85M211 124h91M208 125h97M206 126h101M203 127h107M201 128h111M199 129h70M289 129h25M197 130h65M296 130h20M194 131h63M301 131h18M192 132h61M305 132h16M191 133h58M309 133h13M189 134h57M312 134h12M187 135h57M314 135h12M185 136h56M317 136h11M184 137h55M319 137h10M182 138h55M321 138h10M180 139h55M323 139h10M179 140h54M325 140h9M177 141h54M327 141h9M176 142h54M328 142h9M175 143h53M330 143h8M173 144h53M332 144h8M172 145h53M333 145h8M171 146h52M335 146h7M169 147h53M336 147h8M168 148h53M337 148h8M167 149h52M339 149h7M166 150h52M340 150h7M164 151h53M341 151h8M163 152h53M342 152h8M162 153h53M343 153h8M161 154h53M344 154h8M160 155h53M345 155h8M159 156h53M346 156h8M158 157h53M347 157h8M157 158h53M348 158h8M156 159h53M349 159h8M155 160h53M350 160h8M154 161h53M351 161h8M153 162h53M352 162h8M152 163h53M353 163h8M151 164h53M354 164h8M151 165h53M354 165h8M150 166h53M355 166h8M149 167h53M356 167h8M148 168h53M357 168h8M147 169h54M357 169h9M147 170h53M358 170h8M146 171h53M359 171h8M145 172h54M359 172h9M144 173h54M360 173h9M144 174h53M361 174h8M143 175h54M361 175h9M142 176h54M362 176h9M141 177h55M362 177h10M141 178h54M363 178h9M140 179h55M363 179h10M139 180h55M364 180h10M139 181h55M364 181h10M138 182h55M365 182h10M138 183h55M365 183h10M137 184h55M366 184h10M136 185h56M366 185h11M136 186h55M367 186h10M135 187h56M367 187h11M135 188h56M367 188h11M134 189h56M368 189h11M134 190h56M368 190h11M133 191h57M368 191h12M132 192h57M369 192h12M132 193h36M184 193h5M369 193h12M131 194h31M369 194h13M131 195h28M228 195h3M233 195h2M247 195h1M370 195h12M131 196h25M230 196h3M236 196h1M239 196h1M243 196h1M245 196h1M370 196h12M130 197h23M231 197h6M239 197h2M242 197h3M248 197h1M370 197h13M130 198h21M227 198h4M232 198h1M236 198h1M240 198h1M242 198h2M247 198h1M370 198h13M129 199h20M231 199h4M240 199h1M242 199h1M246 199h1M371 199h13M129 200h18M233 200h4M371 200h13M128 201h17M236 201h2M241 201h1M243 201h1M249 201h1M371 201h14M128 202h16M241 202h1M243 202h1M248 202h1M371 202h14M127 203h15M228 203h1M233 203h2M241 203h2M244 203h1M247 203h1M372 203h14M127 204h14M229 204h1M231 204h2M236 204h1M238 204h2M242 204h1M372 204h14M127 205h13M234 205h8M372 205h14M126 206h13M236 206h6M372 206h15M126 207h12M234 207h1M242 207h1M372 207h15M125 208h12M241 208h1M372 208h16M125 209h11M235 209h1M372 209h16M125 210h10M373 210h15M124 211h10M234 211h2M242 211h2M373 211h16M124 212h9M233 212h1M235 212h1M242 212h1M244 212h1M373 212h16M124 213h8M373 213h16M123 214h9M373 214h17M123 215h8M373 215h17M123 216h7M373 216h17M123 217h7M373 217h17M122 218h7M373 218h18M122 219h6M373 219h18M122 220h6M373 220h18M121 221h6M373 221h19M121 222h6M373 222h19M121 223h6M373 223h19M121 224h5M373 224h19M120 225h6M373 225h20M120 226h6M373 226h20M120 227h5M373 227h20M120 228h5M373 228h20M120 229h5M373 229h20M119 230h6M372 230h22M119 231h5M372 231h22M119 232h5M372 232h22M119 233h5M372 233h22M119 234h5M372 234h22M119 235h5M372 235h22M118 236h6M372 236h23M118 237h6M371 237h24M118 238h6M371 238h24M118 239h6M371 239h24M118 240h6M371 240h24M118 241h6M370 241h25M118 242h6M370 242h25M118 243h6M370 243h25M118 244h6M372 244h23M117 245h8M372 245h24M117 246h8M372 246h24M117 247h8M372 247h24M117 248h8M374 248h22M117 249h9M374 249h22M117 250h9M374 250h22M117 251h9M374 251h22M117 252h10M374 252h22M117 253h10M374 253h22M117 254h10M374 254h22M117 255h11M374 255h22M117 256h11M374 256h22M117 257h12M374 257h22M117 258h13M374 258h22M117 259h13M374 259h22M117 260h14M372 260h24M117 261h15M372 261h24M117 262h15M374 262h22M117 263h16M374 263h22M117 264h17M374 264h22M117 265h18M374 265h22M117 266h19M374 266h22M117 267h20M374 267h22M118 268h20M374 268h21M118 269h21M374 269h21M118 270h22M372 270h23M118 271h23M372 271h23M118 272h24M370 272h25M118 273h26M370 273h25M118 274h27M370 274h25M118 275h29M370 275h25M118 276h31M203 276h26M344 276h2M368 276h27M119 277h32M201 277h75M344 277h2M368 277h26M119 278h34M199 278h125M366 278h28M119 279h37M196 279h144M366 279h28M119 280h40M230 280h10M260 280h10M284 280h20M318 280h22M362 280h32M119 281h43M230 281h10M260 281h10M284 281h20M318 281h22M362 281h32M119 282h49M230 282h10M260 282h10M286 282h18M320 282h22M346 282h2M360 282h34M120 283h64M230 283h10M260 283h10M286 283h18M320 283h22M346 283h2M360 283h33M120 284h62M228 284h10M262 284h10M286 284h20M320 284h24M358 284h35M120 285h62M228 285h10M262 285h10M286 285h20M320 285h24M358 285h35M120 286h62M228 286h10M262 286h10M288 286h18M322 286h18M344 286h2M348 286h2M360 286h33M120 287h62M228 287h10M262 287h10M288 287h18M322 287h18M344 287h2M348 287h2M360 287h33M121 288h59M200 288h36M264 288h10M288 288h20M322 288h18M344 288h2M352 288h2M362 288h30M121 289h59M200 289h36M264 289h10M288 289h20M322 289h18M344 289h2M352 289h2M362 289h30M121 290h59M200 290h36M246 290h8M264 290h10M290 290h18M324 290h16M346 290h4M358 290h2M364 290h28M121 291h59M200 291h36M246 291h8M264 291h10M290 291h18M324 291h16M346 291h4M358 291h2M364 291h28M122 292h56M224 292h10M244 292h12M266 292h10M290 292h20M324 292h16M350 292h2M364 292h27M122 293h56M224 293h10M244 293h12M266 293h10M290 293h20M324 293h16M350 293h2M364 293h27M122 294h56M224 294h10M244 294h12M266 294h10M292 294h18M326 294h14M350 294h4M362 294h29M123 295h55M224 295h10M244 295h12M266 295h10M292 295h18M326 295h14M350 295h4M362 295h28M123 296h53M222 296h10M242 296h16M268 296h10M292 296h20M326 296h64M123 297h53M222 297h10M242 297h16M268 297h10M292 297h20M326 297h64M123 298h53M222 298h10M268 298h10M294 298h18M328 298h62M124 299h52M222 299h10M268 299h10M294 299h18M328 299h61M124 300h50M194 300h36M270 300h10M294 300h20M328 300h61M124 301h50M194 301h36M270 301h10M294 301h20M328 301h61M125 302h49M194 302h36M270 302h10M296 302h18M330 302h58M125 303h49M194 303h36M270 303h10M296 303h18M330 303h58M125 304h47M192 304h36M272 304h10M296 304h20M330 304h58M126 305h46M192 305h36M272 305h10M296 305h20M330 305h57M126 306h46M192 306h36M238 306h24M272 306h10M310 306h6M344 306h43M127 307h45M192 307h36M238 307h24M272 307h10M310 307h6M344 307h42M127 308h43M190 308h36M236 308h28M274 308h10M312 308h6M346 308h40M127 309h43M190 309h36M236 309h28M274 309h10M312 309h6M346 309h40M128 310h42M190 310h36M236 310h28M274 310h10M312 310h6M346 310h39M128 311h42M190 311h36M236 311h28M274 311h10M312 311h6M346 311h39M129 312h39M190 312h34M234 312h32M276 312h10M314 312h6M348 312h36M129 313h39M190 313h34M234 313h32M276 313h10M314 313h6M348 313h36M130 314h38M188 314h36M234 314h32M276 314h10M314 314h6M348 314h35M130 315h38M188 315h36M234 315h32M276 315h10M314 315h6M348 315h35M131 316h37M188 316h36M234 316h32M276 316h12M314 316h8M348 316h34M131 317h37M188 317h36M234 317h32M276 317h12M314 317h8M348 317h34M131 318h251M132 319h249M132 320h249M133 321h247M134 322h245M134 323h245M135 324h243M135 325h243M136 326h241M136 327h241M137 328h239M138 329h237M138 330h237M139 331h235M139 332h235M140 333h233M141 334h231M141 335h231M142 336h229M143 337h227M144 338h225M144 339h225M145 340h223M146 341h221M147 342h219M147 343h219M148 344h217M149 345h215M150 346h213M151 347h211M151 348h211M152 349h209M153 350h207M154 351h205M155 352h203M156 353h201M157 354h199M158 355h197M159 356h195M160 357h193M161 358h191M162 359h189M163 360h187M164 361h185M166 362h181M167 363h179M168 364h177M169 365h175M171 366h171M172 367h169M173 368h167M175 369h163M176 370h161M177 371h159M179 372h155M180 373h153M182 374h149M184 375h145M185 376h143M187 377h139M189 378h135M191 379h131M192 380h129M194 381h125M197 382h119M199 383h115M201 384h111M203 385h107M206 386h101M208 387h97M211 388h91M214 389h85M218 390h77M221 391h71M225 392h63M230 393h53M236 394h41M245 395h23" />
<path stroke="#9f9f9f" d="M269 129h20M262 130h34M257 131h44M253 132h52M249 133h60M246 134h66M244 135h70M241 136h76M239 137h80M237 138h84M235 139h88M233 140h92M231 141h96M230 142h98M228 143h102M226 144h106M225 145h108M223 146h112M222 147h114M221 148h116M219 149h120M218 150h122M217 151h124M216 152h126M215 153h128M214 154h130M213 155h132M212 156h134M211 157h136M210 158h138M209 159h140M208 160h142M207 161h144M206 162h146M205 163h148M204 164h150M204 165h150M203 166h152M202 167h154M201 168h156M201 169h156M200 170h158M199 171h160M199 172h160M198 173h162M197 174h164M197 175h164M196 176h166M196 177h166M195 178h168M195 179h168M194 180h170M194 181h170M193 182h172M193 183h172M192 184h174M192 185h174M191 186h176M191 187h176M191 188h47M239 188h128M190 189h42M234 189h3M240 189h3M245 189h123M190 190h42M235 190h2M241 190h1M245 190h123M190 191h42M245 191h123M189 192h40M231 192h1M237 192h1M247 192h122M168 193h16M189 193h40M237 193h4M245 193h1M247 193h122M162 194h65M238 194h2M249 194h120M159 195h68M249 195h121M156 196h72M237 196h1M246 196h1M250 196h28M288 196h82M153 197h74M237 197h2M246 197h1M251 197h27M288 197h82M151 198h75M239 198h1M245 198h1M252 198h30M294 198h76M149 199h77M251 199h31M294 199h77M147 200h80M238 200h1M245 200h1M248 200h2M252 200h36M300 200h71M145 201h81M228 201h2M238 201h1M240 201h1M244 201h1M247 201h2M251 201h37M300 201h71M144 202h83M228 202h3M235 202h1M239 202h2M246 202h2M250 202h40M306 202h65M142 203h85M229 203h4M235 203h4M240 203h1M245 203h2M248 203h2M251 203h39M306 203h66M141 204h87M230 204h1M233 204h1M235 204h1M237 204h1M245 204h3M250 204h42M300 204h4M308 204h64M140 205h87M228 205h5M248 205h44M300 205h4M308 205h64M139 206h9M186 206h42M245 206h51M302 206h6M312 206h60M138 207h10M186 207h47M235 207h1M244 207h52M302 207h6M312 207h60M137 208h11M150 208h4M188 208h46M235 208h1M237 208h3M242 208h1M244 208h22M272 208h28M304 208h6M314 208h58M136 209h12M150 209h4M188 209h46M237 209h4M242 209h1M244 209h22M272 209h28M304 209h6M314 209h58M135 210h13M150 210h4M188 210h46M236 210h6M244 210h20M266 210h2M276 210h24M306 210h8M318 210h55M134 211h14M150 211h4M188 211h45M237 211h4M245 211h19M266 211h2M276 211h24M306 211h8M318 211h55M133 212h17M152 212h2M174 212h8M190 212h14M212 212h8M243 212h1M256 212h8M266 212h2M278 212h26M308 212h8M320 212h6M330 212h43M132 213h18M152 213h2M174 213h8M190 213h14M212 213h8M256 213h8M266 213h2M278 213h26M308 213h8M320 213h6M330 213h43M132 214h18M152 214h2M164 214h8M174 214h8M190 214h12M204 214h4M214 214h4M220 214h4M260 214h6M268 214h2M282 214h18M312 214h8M326 214h2M334 214h39M131 215h19M152 215h2M164 215h8M174 215h8M190 215h12M204 215h4M214 215h4M220 215h4M260 215h6M268 215h2M282 215h18M312 215h8M326 215h2M334 215h39M130 216h20M152 216h4M166 216h6M174 216h8M190 216h12M204 216h2M214 216h4M220 216h4M262 216h4M268 216h6M284 216h18M314 216h8M330 216h4M336 216h37M130 217h20M152 217h4M166 217h6M174 217h8M190 217h12M204 217h2M214 217h4M220 217h4M262 217h4M268 217h6M284 217h18M314 217h8M330 217h4M336 217h37M129 218h21M152 218h4M166 218h6M174 218h10M190 218h12M204 218h2M214 218h6M222 218h4M262 218h6M270 218h8M286 218h24M316 218h10M328 218h2M332 218h4M342 218h2M348 218h25M128 219h22M152 219h4M166 219h6M174 219h10M190 219h12M204 219h2M214 219h6M222 219h4M262 219h6M270 219h8M286 219h24M316 219h10M328 219h2M332 219h4M342 219h2M348 219h25M128 220h24M154 220h2M166 220h8M176 220h8M192 220h10M204 220h2M214 220h6M222 220h4M230 220h24M262 220h6M270 220h10M290 220h22M320 220h20M344 220h2M352 220h21M127 221h25M154 221h2M166 221h8M176 221h8M192 221h10M204 221h2M214 221h6M222 221h4M230 221h24M262 221h6M270 221h10M290 221h22M320 221h20M344 221h2M352 221h21M127 222h25M154 222h2M168 222h6M176 222h6M192 222h10M204 222h2M216 222h4M222 222h4M230 222h24M262 222h8M272 222h10M292 222h24M322 222h14M338 222h4M346 222h2M354 222h19M127 223h25M154 223h2M168 223h6M176 223h6M192 223h10M204 223h2M216 223h4M222 223h4M230 223h24M262 223h8M272 223h10M292 223h24M322 223h14M338 223h4M346 223h2M354 223h19M126 224h26M154 224h4M168 224h6M176 224h4M192 224h10M204 224h2M216 224h4M222 224h4M238 224h16M262 224h8M272 224h14M296 224h24M324 224h18M348 224h2M356 224h17M126 225h26M154 225h4M168 225h6M176 225h4M192 225h10M204 225h2M216 225h4M222 225h4M238 225h16M262 225h8M272 225h14M296 225h24M324 225h18M348 225h2M356 225h17M126 226h26M154 226h4M168 226h6M176 226h2M190 226h10M202 226h4M216 226h6M224 226h4M236 226h16M262 226h10M274 226h14M298 226h24M330 226h14M350 226h4M358 226h15M125 227h27M154 227h4M168 227h6M176 227h2M190 227h10M202 227h4M216 227h6M224 227h4M236 227h16M262 227h10M274 227h14M298 227h24M330 227h14M350 227h4M358 227h15M125 228h29M156 228h2M188 228h12M202 228h4M216 228h6M224 228h4M232 228h10M244 228h6M260 228h12M274 228h16M302 228h24M332 228h14M352 228h4M358 228h15M125 229h29M156 229h2M188 229h12M202 229h4M216 229h6M224 229h4M232 229h10M244 229h6M260 229h12M274 229h16M302 229h24M332 229h14M352 229h4M358 229h15M125 230h29M156 230h2M190 230h10M202 230h4M216 230h6M224 230h4M234 230h6M244 230h4M258 230h16M276 230h4M286 230h8M304 230h24M334 230h14M350 230h2M354 230h2M360 230h12M124 231h30M156 231h2M190 231h10M202 231h4M216 231h6M224 231h4M234 231h6M244 231h4M258 231h16M276 231h4M286 231h8M304 231h24M334 231h14M350 231h2M354 231h2M360 231h12M124 232h30M156 232h4M196 232h4M202 232h4M216 232h6M224 232h4M236 232h2M242 232h4M256 232h18M276 232h4M282 232h4M288 232h8M308 232h16M328 232h24M354 232h4M360 232h12M124 233h30M156 233h4M196 233h4M202 233h4M216 233h6M224 233h4M236 233h2M242 233h4M256 233h18M276 233h4M282 233h4M288 233h8M308 233h16M328 233h24M354 233h4M360 233h12M124 234h30M156 234h4M196 234h4M202 234h4M216 234h8M226 234h4M240 234h4M254 234h22M278 234h4M284 234h4M290 234h10M310 234h18M332 234h22M356 234h4M362 234h10M124 235h30M156 235h4M196 235h4M202 235h4M216 235h8M226 235h4M240 235h4M254 235h22M278 235h4M284 235h4M290 235h10M310 235h18M332 235h22M356 235h4M362 235h10M124 236h30M156 236h4M196 236h4M202 236h4M216 236h8M226 236h4M240 236h2M252 236h24M278 236h6M286 236h4M292 236h10M312 236h20M334 236h20M356 236h6M364 236h8M124 237h30M156 237h4M196 237h4M202 237h4M216 237h8M226 237h4M240 237h2M252 237h24M278 237h6M286 237h4M292 237h10M312 237h20M334 237h20M356 237h6M364 237h7M124 238h32M158 238h2M196 238h4M202 238h4M216 238h8M226 238h4M250 238h22M276 238h2M280 238h4M286 238h6M296 238h10M316 238h18M338 238h24M364 238h7M124 239h32M158 239h2M196 239h4M202 239h4M216 239h8M226 239h4M250 239h22M276 239h2M280 239h4M286 239h6M296 239h10M316 239h18M338 239h24M364 239h7M124 240h32M158 240h2M178 240h8M196 240h4M202 240h4M218 240h6M226 240h4M252 240h20M280 240h6M288 240h8M298 240h10M318 240h18M344 240h18M364 240h4M370 240h1M124 241h32M158 241h2M178 241h8M196 241h4M202 241h4M218 241h6M226 241h4M252 241h20M280 241h6M288 241h8M298 241h10M318 241h18M344 241h18M364 241h4M124 242h32M158 242h6M172 242h6M180 242h6M196 242h4M202 242h2M218 242h8M228 242h4M254 242h18M282 242h4M288 242h10M300 242h8M322 242h18M348 242h16M366 242h2M124 243h32M158 243h6M172 243h6M180 243h6M196 243h4M202 243h2M218 243h8M228 243h4M254 243h18M282 243h4M288 243h10M300 243h8M322 243h18M348 243h16M366 243h2M124 244h32M158 244h6M172 244h6M180 244h6M196 244h4M202 244h2M218 244h8M228 244h4M242 244h2M256 244h16M274 244h2M286 244h2M290 244h10M302 244h2M320 244h2M324 244h22M350 244h14M366 244h2M125 245h31M158 245h6M172 245h6M180 245h6M196 245h4M202 245h2M218 245h8M228 245h4M242 245h2M256 245h16M274 245h2M286 245h2M290 245h10M302 245h2M320 245h2M324 245h22M350 245h14M366 245h2M125 246h33M160 246h4M172 246h8M182 246h2M196 246h4M202 246h2M218 246h8M228 246h4M244 246h2M258 246h16M276 246h4M294 246h6M318 246h4M324 246h26M352 246h14M125 247h33M160 247h4M172 247h8M182 247h2M196 247h4M202 247h2M218 247h8M228 247h4M244 247h2M258 247h16M276 247h4M294 247h6M318 247h4M324 247h26M352 247h14M125 248h33M160 248h4M172 248h8M196 248h4M202 248h2M218 248h10M230 248h4M244 248h4M260 248h16M280 248h4M314 248h8M324 248h28M354 248h12M368 248h2M126 249h32M160 249h4M172 249h8M196 249h4M202 249h2M218 249h10M230 249h4M244 249h4M260 249h16M280 249h4M314 249h8M324 249h28M354 249h12M368 249h2M126 250h32M160 250h4M174 250h4M192 250h2M196 250h4M202 250h2M218 250h10M230 250h4M248 250h2M262 250h14M284 250h4M312 250h10M324 250h24M352 250h14M368 250h2M126 251h32M160 251h4M174 251h4M192 251h2M196 251h4M202 251h2M218 251h10M230 251h4M248 251h2M262 251h14M284 251h4M312 251h10M324 251h24M352 251h14M368 251h2M127 252h31M160 252h4M174 252h2M188 252h4M194 252h6M202 252h2M218 252h10M230 252h4M250 252h2M264 252h12M278 252h4M288 252h4M308 252h10M322 252h28M354 252h16M127 253h31M160 253h4M174 253h2M188 253h4M194 253h6M202 253h2M218 253h10M230 253h4M250 253h2M264 253h12M278 253h4M288 253h4M308 253h10M322 253h28M354 253h16M127 254h31M160 254h6M186 254h4M192 254h6M200 254h4M218 254h10M230 254h4M252 254h2M266 254h10M278 254h4M306 254h10M318 254h28M356 254h14M128 255h30M160 255h6M186 255h4M192 255h6M200 255h4M218 255h10M230 255h4M252 255h2M266 255h10M278 255h4M306 255h10M318 255h28M356 255h14M128 256h32M162 256h4M184 256h4M190 256h8M200 256h4M218 256h12M232 256h4M250 256h2M254 256h2M268 256h8M278 256h4M302 256h10M316 256h32M350 256h4M356 256h14M129 257h31M162 257h4M184 257h4M190 257h8M200 257h4M218 257h12M232 257h4M250 257h2M254 257h2M268 257h8M278 257h4M302 257h10M316 257h32M350 257h4M356 257h14M130 258h30M162 258h4M182 258h4M188 258h10M200 258h4M220 258h10M232 258h4M250 258h4M256 258h2M270 258h8M280 258h12M298 258h12M312 258h38M352 258h4M358 258h10M130 259h30M162 259h4M182 259h4M188 259h10M200 259h4M220 259h10M232 259h4M250 259h4M256 259h2M270 259h8M280 259h12M298 259h12M312 259h38M352 259h4M358 259h10M131 260h29M162 260h4M180 260h4M186 260h12M200 260h4M220 260h10M232 260h4M250 260h4M256 260h4M268 260h2M272 260h8M286 260h2M296 260h10M310 260h38M350 260h2M354 260h14M132 261h28M162 261h4M180 261h4M186 261h12M200 261h4M220 261h10M232 261h4M250 261h4M256 261h4M268 261h2M272 261h8M286 261h2M296 261h10M310 261h38M350 261h2M354 261h14M132 262h28M162 262h4M176 262h6M184 262h14M200 262h4M220 262h10M232 262h4M244 262h6M252 262h4M258 262h4M266 262h4M272 262h10M284 262h4M292 262h10M306 262h42M356 262h12M133 263h27M162 263h4M176 263h6M184 263h14M200 263h4M220 263h10M232 263h4M244 263h6M252 263h4M258 263h4M266 263h4M272 263h10M284 263h4M292 263h10M306 263h42M356 263h12M134 264h28M164 264h2M174 264h6M182 264h16M200 264h4M212 264h6M220 264h12M234 264h4M240 264h10M252 264h6M260 264h8M270 264h10M282 264h4M290 264h10M302 264h48M352 264h2M356 264h10M370 264h2M135 265h27M164 265h2M174 265h6M182 265h16M200 265h4M212 265h6M220 265h12M234 265h4M240 265h10M252 265h6M260 265h8M270 265h10M282 265h4M290 265h10M302 265h48M352 265h2M356 265h10M370 265h2M136 266h26M164 266h2M172 266h6M180 266h18M200 266h18M220 266h12M234 266h12M250 266h10M262 266h4M268 266h12M282 266h14M300 266h50M352 266h14M368 266h4M137 267h25M164 267h2M172 267h6M180 267h18M200 267h18M220 267h12M234 267h12M250 267h10M262 267h4M268 267h12M282 267h14M300 267h50M352 267h14M368 267h4M138 268h24M164 268h12M178 268h20M200 268h8M218 268h14M234 268h10M246 268h16M266 268h14M282 268h12M296 268h56M354 268h18M139 269h23M164 269h12M178 269h20M200 269h8M218 269h14M234 269h10M246 269h16M266 269h14M282 269h12M296 269h56M354 269h18M140 270h22M164 270h10M176 270h24M208 270h24M234 270h8M244 270h36M282 270h8M294 270h58M356 270h14M141 271h21M164 271h10M176 271h24M208 271h24M234 271h8M244 271h36M282 271h8M294 271h58M356 271h14M142 272h22M166 272h6M174 272h60M236 272h2M242 272h40M290 272h52M346 272h8M356 272h12M144 273h20M166 273h6M174 273h60M236 273h2M242 273h40M290 273h52M346 273h8M356 273h12M145 274h19M166 274h4M172 274h62M238 274h102M342 274h4M348 274h6M356 274h10M147 275h17M166 275h4M172 275h62M238 275h102M342 275h4M348 275h6M356 275h10M149 276h15M166 276h2M170 276h33M229 276h111M346 276h2M350 276h2M358 276h4M151 277h13M166 277h2M170 277h31M276 277h64M346 277h2M350 277h2M358 277h4M153 278h13M168 278h31M324 278h16M346 278h2M354 278h2M156 279h10M168 279h28M346 279h2M354 279h2M159 280h25M344 280h2M354 280h4M162 281h22M344 281h2M354 281h4M168 282h16M190 282h38M244 282h14M276 282h8M310 282h8M348 282h4M190 283h38M244 283h14M276 283h8M310 283h8M348 283h4M188 284h14M242 284h18M278 284h6M312 284h6M346 284h8M188 285h14M242 285h18M278 285h6M312 285h6M346 285h8M188 286h12M242 286h4M256 286h4M278 286h8M312 286h8M350 286h4M188 287h12M242 287h4M256 287h4M278 287h8M312 287h8M350 287h4M186 288h12M240 288h4M258 288h4M280 288h6M314 288h6M350 288h2M356 288h4M186 289h12M240 289h4M258 289h4M280 289h6M314 289h6M350 289h2M356 289h4M186 290h12M240 290h4M258 290h4M280 290h8M314 290h8M354 290h2M360 290h2M186 291h12M240 291h4M258 291h4M280 291h8M314 291h8M354 291h2M360 291h2M184 292h12M238 292h4M260 292h4M282 292h6M316 292h6M360 292h2M184 293h12M238 293h4M260 293h4M282 293h6M316 293h6M360 293h2M184 294h38M238 294h4M260 294h4M282 294h8M316 294h8M184 295h38M238 295h4M260 295h4M282 295h8M316 295h8M182 296h14M236 296h4M262 296h4M284 296h6M318 296h6M182 297h14M236 297h4M262 297h4M284 297h6M318 297h6M182 298h12M236 298h4M262 298h4M284 298h8M318 298h8M182 299h12M236 299h4M262 299h4M284 299h8M318 299h8M180 300h12M234 300h34M286 300h6M320 300h6M180 301h12M234 301h34M286 301h6M320 301h6M180 302h12M234 302h4M264 302h4M286 302h8M320 302h8M180 303h12M234 303h4M264 303h4M286 303h8M320 303h8M178 304h12M232 304h4M266 304h4M288 304h6M322 304h6M178 305h12M232 305h4M266 305h4M288 305h6M322 305h6M178 306h12M232 306h4M266 306h4M288 306h8M322 306h8M178 307h12M232 307h4M266 307h4M288 307h8M322 307h8M176 308h12M230 308h4M268 308h4M290 308h20M324 308h20M176 309h12M230 309h4M268 309h4M290 309h20M324 309h20M176 310h12M230 310h4M268 310h4M290 310h20M324 310h20M176 311h12M230 311h4M268 311h4M290 311h20M324 311h20M174 312h12M228 312h4M270 312h4M292 312h20M326 312h20M174 313h12M228 313h4M270 313h4M292 313h20M326 313h20" />
<path stroke="#dfdfdf" d="M238 189h1M233 190h1M238 190h2M243 190h1M233 191h2M242 191h2M233 192h1M238 192h3M230 193h1M234 193h3M241 193h3M231 194h1M233 194h5M240 194h5M235 195h1M238 195h1M240 195h3M244 195h1M241 196h1M278 196h10M245 197h1M278 197h10M238 198h1M249 198h2M282 198h12M239 199h1M248 199h2M282 199h12M228 200h3M244 200h1M247 200h1M250 200h1M288 200h12M227 201h1M230 201h3M239 201h1M246 201h1M288 201h12M231 202h4M245 202h1M290 202h16M290 203h16M292 204h8M304 204h4M292 205h8M304 205h4M296 206h6M308 206h4M296 207h6M308 207h4M154 208h32M300 208h4M310 208h4M154 209h32M300 209h4M310 209h4M154 210h32M268 210h4M300 210h6M314 210h4M154 211h32M268 211h4M300 211h6M314 211h4M154 212h8M182 212h6M268 212h8M304 212h4M316 212h4M326 212h4M154 213h8M182 213h6M268 213h8M304 213h4M316 213h4M326 213h4M154 214h8M182 214h6M208 214h4M224 214h34M270 214h8M300 214h12M320 214h6M328 214h6M154 215h8M182 215h6M208 215h4M224 215h34M270 215h8M300 215h12M320 215h6M328 215h6M156 216h8M182 216h6M206 216h6M224 216h36M274 216h8M302 216h12M322 216h8M334 216h2M156 217h8M182 217h6M206 217h6M224 217h36M274 217h8M302 217h12M322 217h8M334 217h2M156 218h8M184 218h4M206 218h6M226 218h34M278 218h6M310 218h6M326 218h2M330 218h2M336 218h6M344 218h4M156 219h8M184 219h4M206 219h6M226 219h34M278 219h6M310 219h6M326 219h2M330 219h2M336 219h6M344 219h4M156 220h8M184 220h6M206 220h6M226 220h4M254 220h6M280 220h6M312 220h8M340 220h4M346 220h6M156 221h8M184 221h6M206 221h6M226 221h4M254 221h6M280 221h6M312 221h8M340 221h4M346 221h6M156 222h10M182 222h8M206 222h8M226 222h4M254 222h6M282 222h8M316 222h6M336 222h2M342 222h4M348 222h6M156 223h10M182 223h8M206 223h8M226 223h4M254 223h6M282 223h8M316 223h6M336 223h2M342 223h4M348 223h6M158 224h8M180 224h10M206 224h8M226 224h12M254 224h6M286 224h6M320 224h4M342 224h6M350 224h6M158 225h8M180 225h10M206 225h8M226 225h12M254 225h6M286 225h6M320 225h4M342 225h6M350 225h6M158 226h8M178 226h10M206 226h8M228 226h8M252 226h8M288 226h8M322 226h8M344 226h6M354 226h4M158 227h8M178 227h10M206 227h8M228 227h8M252 227h8M288 227h8M322 227h8M344 227h6M354 227h4M158 228h10M174 228h12M206 228h8M228 228h4M242 228h2M250 228h8M290 228h8M326 228h6M346 228h6M356 228h2M158 229h10M174 229h12M206 229h8M228 229h4M242 229h2M250 229h8M290 229h8M326 229h6M346 229h6M356 229h2M158 230h10M170 230h16M206 230h8M228 230h6M240 230h4M248 230h8M294 230h8M328 230h6M348 230h2M352 230h2M356 230h4M158 231h10M170 231h16M206 231h8M228 231h6M240 231h4M248 231h8M294 231h8M328 231h6M348 231h2M352 231h2M356 231h4M160 232h30M206 232h8M228 232h8M238 232h4M246 232h8M296 232h8M324 232h4M352 232h2M358 232h2M160 233h30M206 233h8M228 233h8M238 233h4M246 233h8M296 233h8M324 233h4M352 233h2M358 233h2M160 234h34M206 234h8M230 234h10M244 234h8M300 234h8M328 234h4M354 234h2M360 234h2M160 235h34M206 235h8M230 235h10M244 235h8M300 235h8M328 235h4M354 235h2M360 235h2M160 236h34M206 236h8M230 236h10M242 236h8M302 236h8M332 236h2M354 236h2M362 236h2M160 237h34M206 237h8M230 237h10M242 237h8M302 237h8M332 237h2M354 237h2M362 237h2M160 238h34M206 238h8M230 238h18M306 238h6M334 238h4M362 238h2M160 239h34M206 239h8M230 239h18M306 239h6M334 239h4M362 239h2M160 240h10M186 240h8M206 240h10M230 240h20M274 240h2M308 240h8M336 240h8M362 240h2M368 240h2M160 241h10M186 241h8M206 241h10M230 241h20M274 241h2M308 241h8M336 241h8M362 241h2M368 241h2M164 242h6M186 242h8M204 242h12M232 242h20M274 242h8M308 242h10M340 242h8M364 242h2M368 242h2M164 243h6M186 243h8M204 243h12M232 243h20M274 243h8M308 243h10M340 243h8M364 243h2M368 243h2M164 244h6M186 244h8M204 244h12M232 244h10M244 244h10M276 244h10M304 244h16M346 244h4M364 244h2M368 244h4M164 245h6M186 245h8M204 245h12M232 245h10M244 245h10M276 245h10M304 245h16M346 245h4M364 245h2M368 245h4M164 246h6M184 246h10M204 246h12M232 246h12M246 246h10M280 246h10M302 246h16M350 246h2M366 246h6M164 247h6M184 247h10M204 247h12M232 247h12M246 247h10M280 247h10M302 247h16M350 247h2M366 247h6M164 248h6M182 248h12M204 248h12M234 248h10M248 248h10M284 248h10M300 248h14M352 248h2M366 248h2M370 248h4M164 249h6M182 249h12M204 249h12M234 249h10M248 249h10M284 249h10M300 249h14M352 249h2M366 249h2M370 249h4M164 250h8M180 250h12M204 250h12M234 250h12M250 250h10M288 250h24M348 250h4M366 250h2M370 250h4M164 251h8M180 251h12M204 251h12M234 251h12M250 251h10M288 251h24M348 251h4M366 251h2M370 251h4M164 252h8M178 252h10M204 252h12M234 252h12M252 252h10M282 252h6M292 252h16M350 252h4M370 252h4M164 253h8M178 253h10M204 253h12M234 253h12M252 253h10M282 253h6M292 253h16M350 253h4M370 253h4M166 254h6M176 254h10M204 254h12M234 254h14M254 254h10M282 254h24M346 254h10M370 254h4M166 255h6M176 255h10M204 255h12M234 255h14M254 255h10M282 255h24M346 255h10M370 255h4M166 256h18M204 256h12M236 256h12M256 256h10M282 256h20M348 256h2M354 256h2M370 256h4M166 257h18M204 257h12M236 257h12M256 257h10M282 257h20M348 257h2M354 257h2M370 257h4M166 258h16M204 258h14M236 258h12M258 258h10M292 258h6M350 258h2M356 258h2M368 258h6M166 259h16M204 259h14M236 259h12M258 259h10M292 259h6M350 259h2M356 259h2M368 259h6M166 260h14M204 260h14M236 260h12M260 260h8M288 260h8M348 260h2M352 260h2M368 260h4M166 261h14M204 261h14M236 261h12M260 261h8M288 261h8M348 261h2M352 261h2M368 261h4M166 262h10M204 262h14M236 262h8M262 262h4M288 262h4M348 262h8M368 262h6M166 263h10M204 263h14M236 263h8M262 263h4M288 263h4M348 263h8M368 263h6M166 264h8M204 264h8M238 264h2M286 264h4M350 264h2M354 264h2M366 264h4M372 264h2M166 265h8M204 265h8M238 265h2M286 265h4M350 265h2M354 265h2M366 265h4M372 265h2M166 266h6M350 266h2M366 266h2M372 266h2M166 267h6M350 267h2M366 267h2M372 267h2M352 268h2M372 268h2M352 269h2M372 269h2M352 270h4M370 270h2M352 271h4M370 271h2M354 272h2M368 272h2M354 273h2M368 273h2M366 274h4M366 275h4M342 276h2M354 276h2M362 276h6M342 277h2M354 277h2M362 277h6M342 278h4M356 278h2M360 278h6M342 279h4M356 279h2M360 279h6M342 280h2M352 280h2M358 280h2M342 281h2M352 281h2M358 281h2M186 282h4M242 282h2M272 282h4M306 282h4M352 282h4M186 283h4M242 283h2M272 283h4M306 283h4M352 283h4M184 284h4M202 284h24M240 284h2M274 284h4M308 284h4M184 285h4M202 285h24M240 285h2M274 285h4M308 285h4M184 286h4M240 286h2M246 286h10M274 286h4M308 286h4M346 286h2M184 287h4M240 287h2M246 287h10M274 287h4M308 287h4M346 287h2M182 288h4M238 288h2M256 288h2M276 288h4M310 288h4M342 288h2M346 288h4M182 289h4M238 289h2M256 289h2M276 289h4M310 289h4M342 289h2M346 289h4M182 290h4M238 290h2M256 290h2M276 290h4M310 290h4M342 290h4M356 290h2M182 291h4M238 291h2M256 291h2M276 291h4M310 291h4M342 291h4M356 291h2M180 292h4M236 292h2M258 292h2M278 292h4M312 292h4M342 292h6M354 292h6M180 293h4M236 293h2M258 293h2M278 293h4M312 293h4M342 293h6M354 293h6M180 294h4M236 294h2M258 294h2M278 294h4M312 294h4M180 295h4M236 295h2M258 295h2M278 295h4M312 295h4M178 296h4M196 296h24M234 296h2M260 296h2M280 296h4M314 296h4M178 297h4M196 297h24M234 297h2M260 297h2M280 297h4M314 297h4M178 298h4M234 298h2M260 298h2M280 298h4M314 298h4M178 299h4M234 299h2M260 299h2M280 299h4M314 299h4M176 300h4M232 300h2M282 300h4M316 300h4M176 301h4M232 301h2M282 301h4M316 301h4M176 302h4M232 302h2M238 302h26M282 302h4M316 302h4M176 303h4M232 303h2M238 303h26M282 303h4M316 303h4M174 304h4M230 304h2M264 304h2M284 304h4M318 304h4M174 305h4M230 305h2M264 305h2M284 305h4M318 305h4M174 306h4M230 306h2M264 306h2M284 306h4M318 306h4M174 307h4M230 307h2M264 307h2M284 307h4M318 307h4M172 308h4M228 308h2M266 308h2M286 308h4M320 308h4M172 309h4M228 309h2M266 309h2M286 309h4M320 309h4M172 310h4M228 310h2M266 310h2M286 310h4M320 310h4M172 311h4M228 311h2M266 311h2M286 311h4M320 311h4M170 312h4M226 312h2M268 312h2M288 312h4M322 312h4M170 313h4M226 313h2M268 313h2M288 313h4M322 313h4M170 314h16M226 314h6M268 314h6M288 314h24M322 314h24M170 315h16M226 315h6M268 315h6M288 315h24M322 315h24" />
<path stroke="#7f7f7f" d="M237 191h4M234 192h2M242 192h2M233 193h1M232 194h1" />
<path stroke="#5f5f5f" d="M245 194h1M243 206h1" />
<path stroke="#404040" d="M235 206h1" />
</svg>